<mxfile host="app.diagrams.net" modified="2021-07-27T15:47:11.981Z" agent="5.0 (Windows NT 10.0; Win64; x64) AppleWebKit/537.36 (KHTML, like Gecko) Chrome/92.0.4515.107 Safari/537.36" etag="u3gL2f01sMRbT_vlWgUE" version="14.9.2" type="github">
  <diagram id="9Xdvdek16Qns2TmY6qqH" name="Page-1">
    <mxGraphModel dx="1038" dy="547" grid="1" gridSize="10" guides="1" tooltips="1" connect="1" arrows="1" fold="1" page="1" pageScale="1" pageWidth="827" pageHeight="1169" math="0" shadow="0">
      <root>
        <mxCell id="0" />
        <mxCell id="1" parent="0" />
        <mxCell id="Z-rV04ZRaT8_ZhlqwDsx-1" value="" style="shape=table;startSize=0;container=1;collapsible=0;childLayout=tableLayout;" vertex="1" parent="1">
          <mxGeometry x="30" y="180" width="60" height="240" as="geometry" />
        </mxCell>
        <mxCell id="Z-rV04ZRaT8_ZhlqwDsx-2" value="" style="shape=partialRectangle;collapsible=0;dropTarget=0;pointerEvents=0;fillColor=none;top=0;left=0;bottom=0;right=0;points=[[0,0.5],[1,0.5]];portConstraint=eastwest;" vertex="1" parent="Z-rV04ZRaT8_ZhlqwDsx-1">
          <mxGeometry width="60" height="40" as="geometry" />
        </mxCell>
        <mxCell id="Z-rV04ZRaT8_ZhlqwDsx-3" value="" style="shape=partialRectangle;html=1;whiteSpace=wrap;connectable=0;overflow=hidden;fillColor=none;top=0;left=0;bottom=0;right=0;" vertex="1" parent="Z-rV04ZRaT8_ZhlqwDsx-2">
          <mxGeometry width="60" height="40" as="geometry" />
        </mxCell>
        <mxCell id="Z-rV04ZRaT8_ZhlqwDsx-4" value="" style="shape=partialRectangle;collapsible=0;dropTarget=0;pointerEvents=0;fillColor=none;top=0;left=0;bottom=0;right=0;points=[[0,0.5],[1,0.5]];portConstraint=eastwest;" vertex="1" parent="Z-rV04ZRaT8_ZhlqwDsx-1">
          <mxGeometry y="40" width="60" height="40" as="geometry" />
        </mxCell>
        <mxCell id="Z-rV04ZRaT8_ZhlqwDsx-5" value="" style="shape=partialRectangle;html=1;whiteSpace=wrap;connectable=0;overflow=hidden;fillColor=none;top=0;left=0;bottom=0;right=0;" vertex="1" parent="Z-rV04ZRaT8_ZhlqwDsx-4">
          <mxGeometry width="60" height="40" as="geometry" />
        </mxCell>
        <mxCell id="Z-rV04ZRaT8_ZhlqwDsx-6" value="" style="shape=partialRectangle;collapsible=0;dropTarget=0;pointerEvents=0;fillColor=none;top=0;left=0;bottom=0;right=0;points=[[0,0.5],[1,0.5]];portConstraint=eastwest;" vertex="1" parent="Z-rV04ZRaT8_ZhlqwDsx-1">
          <mxGeometry y="80" width="60" height="40" as="geometry" />
        </mxCell>
        <mxCell id="Z-rV04ZRaT8_ZhlqwDsx-7" value="2" style="shape=partialRectangle;html=1;whiteSpace=wrap;connectable=0;overflow=hidden;fillColor=none;top=0;left=0;bottom=0;right=0;" vertex="1" parent="Z-rV04ZRaT8_ZhlqwDsx-6">
          <mxGeometry width="60" height="40" as="geometry" />
        </mxCell>
        <mxCell id="Z-rV04ZRaT8_ZhlqwDsx-8" value="" style="shape=partialRectangle;collapsible=0;dropTarget=0;pointerEvents=0;fillColor=none;top=0;left=0;bottom=0;right=0;points=[[0,0.5],[1,0.5]];portConstraint=eastwest;" vertex="1" parent="Z-rV04ZRaT8_ZhlqwDsx-1">
          <mxGeometry y="120" width="60" height="40" as="geometry" />
        </mxCell>
        <mxCell id="Z-rV04ZRaT8_ZhlqwDsx-9" value="6" style="shape=partialRectangle;html=1;whiteSpace=wrap;connectable=0;overflow=hidden;fillColor=none;top=0;left=0;bottom=0;right=0;" vertex="1" parent="Z-rV04ZRaT8_ZhlqwDsx-8">
          <mxGeometry width="60" height="40" as="geometry" />
        </mxCell>
        <mxCell id="Z-rV04ZRaT8_ZhlqwDsx-10" style="shape=partialRectangle;collapsible=0;dropTarget=0;pointerEvents=0;fillColor=none;top=0;left=0;bottom=0;right=0;points=[[0,0.5],[1,0.5]];portConstraint=eastwest;" vertex="1" parent="Z-rV04ZRaT8_ZhlqwDsx-1">
          <mxGeometry y="160" width="60" height="40" as="geometry" />
        </mxCell>
        <mxCell id="Z-rV04ZRaT8_ZhlqwDsx-11" value="3" style="shape=partialRectangle;html=1;whiteSpace=wrap;connectable=0;overflow=hidden;fillColor=none;top=0;left=0;bottom=0;right=0;" vertex="1" parent="Z-rV04ZRaT8_ZhlqwDsx-10">
          <mxGeometry width="60" height="40" as="geometry" />
        </mxCell>
        <mxCell id="Z-rV04ZRaT8_ZhlqwDsx-12" style="shape=partialRectangle;collapsible=0;dropTarget=0;pointerEvents=0;fillColor=none;top=0;left=0;bottom=0;right=0;points=[[0,0.5],[1,0.5]];portConstraint=eastwest;" vertex="1" parent="Z-rV04ZRaT8_ZhlqwDsx-1">
          <mxGeometry y="200" width="60" height="40" as="geometry" />
        </mxCell>
        <mxCell id="Z-rV04ZRaT8_ZhlqwDsx-13" value="1" style="shape=partialRectangle;html=1;whiteSpace=wrap;connectable=0;overflow=hidden;fillColor=none;top=0;left=0;bottom=0;right=0;" vertex="1" parent="Z-rV04ZRaT8_ZhlqwDsx-12">
          <mxGeometry width="60" height="40" as="geometry" />
        </mxCell>
        <mxCell id="Z-rV04ZRaT8_ZhlqwDsx-14" value="" style="shape=table;startSize=0;container=1;collapsible=0;childLayout=tableLayout;" vertex="1" parent="1">
          <mxGeometry x="150" y="180" width="60" height="240" as="geometry" />
        </mxCell>
        <mxCell id="Z-rV04ZRaT8_ZhlqwDsx-15" value="" style="shape=partialRectangle;collapsible=0;dropTarget=0;pointerEvents=0;fillColor=none;top=0;left=0;bottom=0;right=0;points=[[0,0.5],[1,0.5]];portConstraint=eastwest;" vertex="1" parent="Z-rV04ZRaT8_ZhlqwDsx-14">
          <mxGeometry width="60" height="40" as="geometry" />
        </mxCell>
        <mxCell id="Z-rV04ZRaT8_ZhlqwDsx-16" value="" style="shape=partialRectangle;html=1;whiteSpace=wrap;connectable=0;overflow=hidden;fillColor=none;top=0;left=0;bottom=0;right=0;" vertex="1" parent="Z-rV04ZRaT8_ZhlqwDsx-15">
          <mxGeometry width="60" height="40" as="geometry" />
        </mxCell>
        <mxCell id="Z-rV04ZRaT8_ZhlqwDsx-17" value="" style="shape=partialRectangle;collapsible=0;dropTarget=0;pointerEvents=0;fillColor=none;top=0;left=0;bottom=0;right=0;points=[[0,0.5],[1,0.5]];portConstraint=eastwest;" vertex="1" parent="Z-rV04ZRaT8_ZhlqwDsx-14">
          <mxGeometry y="40" width="60" height="40" as="geometry" />
        </mxCell>
        <mxCell id="Z-rV04ZRaT8_ZhlqwDsx-18" value="" style="shape=partialRectangle;html=1;whiteSpace=wrap;connectable=0;overflow=hidden;fillColor=none;top=0;left=0;bottom=0;right=0;" vertex="1" parent="Z-rV04ZRaT8_ZhlqwDsx-17">
          <mxGeometry width="60" height="40" as="geometry" />
        </mxCell>
        <mxCell id="Z-rV04ZRaT8_ZhlqwDsx-19" value="" style="shape=partialRectangle;collapsible=0;dropTarget=0;pointerEvents=0;fillColor=none;top=0;left=0;bottom=0;right=0;points=[[0,0.5],[1,0.5]];portConstraint=eastwest;" vertex="1" parent="Z-rV04ZRaT8_ZhlqwDsx-14">
          <mxGeometry y="80" width="60" height="40" as="geometry" />
        </mxCell>
        <mxCell id="Z-rV04ZRaT8_ZhlqwDsx-20" value="" style="shape=partialRectangle;html=1;whiteSpace=wrap;connectable=0;overflow=hidden;fillColor=none;top=0;left=0;bottom=0;right=0;" vertex="1" parent="Z-rV04ZRaT8_ZhlqwDsx-19">
          <mxGeometry width="60" height="40" as="geometry" />
        </mxCell>
        <mxCell id="Z-rV04ZRaT8_ZhlqwDsx-21" value="" style="shape=partialRectangle;collapsible=0;dropTarget=0;pointerEvents=0;fillColor=none;top=0;left=0;bottom=0;right=0;points=[[0,0.5],[1,0.5]];portConstraint=eastwest;" vertex="1" parent="Z-rV04ZRaT8_ZhlqwDsx-14">
          <mxGeometry y="120" width="60" height="40" as="geometry" />
        </mxCell>
        <mxCell id="Z-rV04ZRaT8_ZhlqwDsx-22" value="" style="shape=partialRectangle;html=1;whiteSpace=wrap;connectable=0;overflow=hidden;fillColor=none;top=0;left=0;bottom=0;right=0;" vertex="1" parent="Z-rV04ZRaT8_ZhlqwDsx-21">
          <mxGeometry width="60" height="40" as="geometry" />
        </mxCell>
        <mxCell id="Z-rV04ZRaT8_ZhlqwDsx-23" style="shape=partialRectangle;collapsible=0;dropTarget=0;pointerEvents=0;fillColor=none;top=0;left=0;bottom=0;right=0;points=[[0,0.5],[1,0.5]];portConstraint=eastwest;" vertex="1" parent="Z-rV04ZRaT8_ZhlqwDsx-14">
          <mxGeometry y="160" width="60" height="40" as="geometry" />
        </mxCell>
        <mxCell id="Z-rV04ZRaT8_ZhlqwDsx-24" style="shape=partialRectangle;html=1;whiteSpace=wrap;connectable=0;overflow=hidden;fillColor=none;top=0;left=0;bottom=0;right=0;" vertex="1" parent="Z-rV04ZRaT8_ZhlqwDsx-23">
          <mxGeometry width="60" height="40" as="geometry" />
        </mxCell>
        <mxCell id="Z-rV04ZRaT8_ZhlqwDsx-25" style="shape=partialRectangle;collapsible=0;dropTarget=0;pointerEvents=0;fillColor=none;top=0;left=0;bottom=0;right=0;points=[[0,0.5],[1,0.5]];portConstraint=eastwest;" vertex="1" parent="Z-rV04ZRaT8_ZhlqwDsx-14">
          <mxGeometry y="200" width="60" height="40" as="geometry" />
        </mxCell>
        <mxCell id="Z-rV04ZRaT8_ZhlqwDsx-26" style="shape=partialRectangle;html=1;whiteSpace=wrap;connectable=0;overflow=hidden;fillColor=none;top=0;left=0;bottom=0;right=0;" vertex="1" parent="Z-rV04ZRaT8_ZhlqwDsx-25">
          <mxGeometry width="60" height="40" as="geometry" />
        </mxCell>
        <mxCell id="Z-rV04ZRaT8_ZhlqwDsx-27" value="" style="shape=table;startSize=0;container=1;collapsible=0;childLayout=tableLayout;" vertex="1" parent="1">
          <mxGeometry x="120" y="40" width="300" height="40" as="geometry" />
        </mxCell>
        <mxCell id="Z-rV04ZRaT8_ZhlqwDsx-28" value="" style="shape=partialRectangle;collapsible=0;dropTarget=0;pointerEvents=0;fillColor=none;top=0;left=0;bottom=0;right=0;points=[[0,0.5],[1,0.5]];portConstraint=eastwest;" vertex="1" parent="Z-rV04ZRaT8_ZhlqwDsx-27">
          <mxGeometry width="300" height="40" as="geometry" />
        </mxCell>
        <mxCell id="Z-rV04ZRaT8_ZhlqwDsx-29" value="1" style="shape=partialRectangle;html=1;whiteSpace=wrap;connectable=0;overflow=hidden;fillColor=none;top=0;left=0;bottom=0;right=0;" vertex="1" parent="Z-rV04ZRaT8_ZhlqwDsx-28">
          <mxGeometry width="60" height="40" as="geometry" />
        </mxCell>
        <mxCell id="Z-rV04ZRaT8_ZhlqwDsx-30" value="3" style="shape=partialRectangle;html=1;whiteSpace=wrap;connectable=0;overflow=hidden;fillColor=none;top=0;left=0;bottom=0;right=0;" vertex="1" parent="Z-rV04ZRaT8_ZhlqwDsx-28">
          <mxGeometry x="60" width="60" height="40" as="geometry" />
        </mxCell>
        <mxCell id="Z-rV04ZRaT8_ZhlqwDsx-31" value="6" style="shape=partialRectangle;html=1;whiteSpace=wrap;connectable=0;overflow=hidden;fillColor=none;top=0;left=0;bottom=0;right=0;" vertex="1" parent="Z-rV04ZRaT8_ZhlqwDsx-28">
          <mxGeometry x="120" width="60" height="40" as="geometry" />
        </mxCell>
        <mxCell id="Z-rV04ZRaT8_ZhlqwDsx-32" value="2" style="shape=partialRectangle;html=1;whiteSpace=wrap;connectable=0;overflow=hidden;fillColor=none;top=0;left=0;bottom=0;right=0;" vertex="1" parent="Z-rV04ZRaT8_ZhlqwDsx-28">
          <mxGeometry x="180" width="60" height="40" as="geometry" />
        </mxCell>
        <mxCell id="Z-rV04ZRaT8_ZhlqwDsx-33" value="(先进先出)" style="shape=partialRectangle;html=1;whiteSpace=wrap;connectable=0;overflow=hidden;fillColor=none;top=0;left=0;bottom=0;right=0;" vertex="1" parent="Z-rV04ZRaT8_ZhlqwDsx-28">
          <mxGeometry x="240" width="60" height="40" as="geometry" />
        </mxCell>
        <mxCell id="Z-rV04ZRaT8_ZhlqwDsx-35" value="" style="shape=table;startSize=0;container=1;collapsible=0;childLayout=tableLayout;" vertex="1" parent="1">
          <mxGeometry x="120" y="100" width="300" height="40" as="geometry" />
        </mxCell>
        <mxCell id="Z-rV04ZRaT8_ZhlqwDsx-36" value="" style="shape=partialRectangle;collapsible=0;dropTarget=0;pointerEvents=0;fillColor=none;top=0;left=0;bottom=0;right=0;points=[[0,0.5],[1,0.5]];portConstraint=eastwest;" vertex="1" parent="Z-rV04ZRaT8_ZhlqwDsx-35">
          <mxGeometry width="300" height="40" as="geometry" />
        </mxCell>
        <mxCell id="Z-rV04ZRaT8_ZhlqwDsx-37" value="3" style="shape=partialRectangle;html=1;whiteSpace=wrap;connectable=0;overflow=hidden;fillColor=none;top=0;left=0;bottom=0;right=0;" vertex="1" parent="Z-rV04ZRaT8_ZhlqwDsx-36">
          <mxGeometry width="60" height="40" as="geometry" />
        </mxCell>
        <mxCell id="Z-rV04ZRaT8_ZhlqwDsx-38" value="6" style="shape=partialRectangle;html=1;whiteSpace=wrap;connectable=0;overflow=hidden;fillColor=none;top=0;left=0;bottom=0;right=0;" vertex="1" parent="Z-rV04ZRaT8_ZhlqwDsx-36">
          <mxGeometry x="60" width="60" height="40" as="geometry" />
        </mxCell>
        <mxCell id="Z-rV04ZRaT8_ZhlqwDsx-39" value="2" style="shape=partialRectangle;html=1;whiteSpace=wrap;connectable=0;overflow=hidden;fillColor=none;top=0;left=0;bottom=0;right=0;" vertex="1" parent="Z-rV04ZRaT8_ZhlqwDsx-36">
          <mxGeometry x="120" width="60" height="40" as="geometry" />
        </mxCell>
        <mxCell id="Z-rV04ZRaT8_ZhlqwDsx-40" value="" style="shape=partialRectangle;html=1;whiteSpace=wrap;connectable=0;overflow=hidden;fillColor=none;top=0;left=0;bottom=0;right=0;" vertex="1" parent="Z-rV04ZRaT8_ZhlqwDsx-36">
          <mxGeometry x="180" width="60" height="40" as="geometry" />
        </mxCell>
        <mxCell id="Z-rV04ZRaT8_ZhlqwDsx-41" value="" style="shape=partialRectangle;html=1;whiteSpace=wrap;connectable=0;overflow=hidden;fillColor=none;top=0;left=0;bottom=0;right=0;" vertex="1" parent="Z-rV04ZRaT8_ZhlqwDsx-36">
          <mxGeometry x="240" width="60" height="40" as="geometry" />
        </mxCell>
        <mxCell id="Z-rV04ZRaT8_ZhlqwDsx-42" value="1" style="rounded=0;whiteSpace=wrap;html=1;" vertex="1" parent="1">
          <mxGeometry x="40" y="100" width="60" height="40" as="geometry" />
        </mxCell>
        <mxCell id="Z-rV04ZRaT8_ZhlqwDsx-69" value="" style="group" vertex="1" connectable="0" parent="1">
          <mxGeometry x="510" y="180" width="180" height="240" as="geometry" />
        </mxCell>
        <mxCell id="Z-rV04ZRaT8_ZhlqwDsx-43" value="" style="shape=table;startSize=0;container=1;collapsible=0;childLayout=tableLayout;" vertex="1" parent="Z-rV04ZRaT8_ZhlqwDsx-69">
          <mxGeometry width="60" height="240" as="geometry" />
        </mxCell>
        <mxCell id="Z-rV04ZRaT8_ZhlqwDsx-44" value="" style="shape=partialRectangle;collapsible=0;dropTarget=0;pointerEvents=0;fillColor=none;top=0;left=0;bottom=0;right=0;points=[[0,0.5],[1,0.5]];portConstraint=eastwest;" vertex="1" parent="Z-rV04ZRaT8_ZhlqwDsx-43">
          <mxGeometry width="60" height="40" as="geometry" />
        </mxCell>
        <mxCell id="Z-rV04ZRaT8_ZhlqwDsx-45" value="" style="shape=partialRectangle;html=1;whiteSpace=wrap;connectable=0;overflow=hidden;fillColor=none;top=0;left=0;bottom=0;right=0;" vertex="1" parent="Z-rV04ZRaT8_ZhlqwDsx-44">
          <mxGeometry width="60" height="40" as="geometry" />
        </mxCell>
        <mxCell id="Z-rV04ZRaT8_ZhlqwDsx-46" value="" style="shape=partialRectangle;collapsible=0;dropTarget=0;pointerEvents=0;fillColor=none;top=0;left=0;bottom=0;right=0;points=[[0,0.5],[1,0.5]];portConstraint=eastwest;" vertex="1" parent="Z-rV04ZRaT8_ZhlqwDsx-43">
          <mxGeometry y="40" width="60" height="40" as="geometry" />
        </mxCell>
        <mxCell id="Z-rV04ZRaT8_ZhlqwDsx-47" value="" style="shape=partialRectangle;html=1;whiteSpace=wrap;connectable=0;overflow=hidden;fillColor=none;top=0;left=0;bottom=0;right=0;" vertex="1" parent="Z-rV04ZRaT8_ZhlqwDsx-46">
          <mxGeometry width="60" height="40" as="geometry" />
        </mxCell>
        <mxCell id="Z-rV04ZRaT8_ZhlqwDsx-48" value="" style="shape=partialRectangle;collapsible=0;dropTarget=0;pointerEvents=0;fillColor=none;top=0;left=0;bottom=0;right=0;points=[[0,0.5],[1,0.5]];portConstraint=eastwest;" vertex="1" parent="Z-rV04ZRaT8_ZhlqwDsx-43">
          <mxGeometry y="80" width="60" height="40" as="geometry" />
        </mxCell>
        <mxCell id="Z-rV04ZRaT8_ZhlqwDsx-49" value="" style="shape=partialRectangle;html=1;whiteSpace=wrap;connectable=0;overflow=hidden;fillColor=none;top=0;left=0;bottom=0;right=0;" vertex="1" parent="Z-rV04ZRaT8_ZhlqwDsx-48">
          <mxGeometry width="60" height="40" as="geometry" />
        </mxCell>
        <mxCell id="Z-rV04ZRaT8_ZhlqwDsx-50" value="" style="shape=partialRectangle;collapsible=0;dropTarget=0;pointerEvents=0;fillColor=none;top=0;left=0;bottom=0;right=0;points=[[0,0.5],[1,0.5]];portConstraint=eastwest;" vertex="1" parent="Z-rV04ZRaT8_ZhlqwDsx-43">
          <mxGeometry y="120" width="60" height="40" as="geometry" />
        </mxCell>
        <mxCell id="Z-rV04ZRaT8_ZhlqwDsx-51" value="" style="shape=partialRectangle;html=1;whiteSpace=wrap;connectable=0;overflow=hidden;fillColor=none;top=0;left=0;bottom=0;right=0;" vertex="1" parent="Z-rV04ZRaT8_ZhlqwDsx-50">
          <mxGeometry width="60" height="40" as="geometry" />
        </mxCell>
        <mxCell id="Z-rV04ZRaT8_ZhlqwDsx-52" style="shape=partialRectangle;collapsible=0;dropTarget=0;pointerEvents=0;fillColor=none;top=0;left=0;bottom=0;right=0;points=[[0,0.5],[1,0.5]];portConstraint=eastwest;" vertex="1" parent="Z-rV04ZRaT8_ZhlqwDsx-43">
          <mxGeometry y="160" width="60" height="40" as="geometry" />
        </mxCell>
        <mxCell id="Z-rV04ZRaT8_ZhlqwDsx-53" value="" style="shape=partialRectangle;html=1;whiteSpace=wrap;connectable=0;overflow=hidden;fillColor=none;top=0;left=0;bottom=0;right=0;" vertex="1" parent="Z-rV04ZRaT8_ZhlqwDsx-52">
          <mxGeometry width="60" height="40" as="geometry" />
        </mxCell>
        <mxCell id="Z-rV04ZRaT8_ZhlqwDsx-54" style="shape=partialRectangle;collapsible=0;dropTarget=0;pointerEvents=0;fillColor=none;top=0;left=0;bottom=0;right=0;points=[[0,0.5],[1,0.5]];portConstraint=eastwest;" vertex="1" parent="Z-rV04ZRaT8_ZhlqwDsx-43">
          <mxGeometry y="200" width="60" height="40" as="geometry" />
        </mxCell>
        <mxCell id="Z-rV04ZRaT8_ZhlqwDsx-55" value="" style="shape=partialRectangle;html=1;whiteSpace=wrap;connectable=0;overflow=hidden;fillColor=none;top=0;left=0;bottom=0;right=0;" vertex="1" parent="Z-rV04ZRaT8_ZhlqwDsx-54">
          <mxGeometry width="60" height="40" as="geometry" />
        </mxCell>
        <mxCell id="Z-rV04ZRaT8_ZhlqwDsx-56" value="" style="shape=table;startSize=0;container=1;collapsible=0;childLayout=tableLayout;" vertex="1" parent="Z-rV04ZRaT8_ZhlqwDsx-69">
          <mxGeometry x="120" width="60" height="240" as="geometry" />
        </mxCell>
        <mxCell id="Z-rV04ZRaT8_ZhlqwDsx-57" value="" style="shape=partialRectangle;collapsible=0;dropTarget=0;pointerEvents=0;fillColor=none;top=0;left=0;bottom=0;right=0;points=[[0,0.5],[1,0.5]];portConstraint=eastwest;" vertex="1" parent="Z-rV04ZRaT8_ZhlqwDsx-56">
          <mxGeometry width="60" height="40" as="geometry" />
        </mxCell>
        <mxCell id="Z-rV04ZRaT8_ZhlqwDsx-58" value="" style="shape=partialRectangle;html=1;whiteSpace=wrap;connectable=0;overflow=hidden;fillColor=none;top=0;left=0;bottom=0;right=0;" vertex="1" parent="Z-rV04ZRaT8_ZhlqwDsx-57">
          <mxGeometry width="60" height="40" as="geometry" />
        </mxCell>
        <mxCell id="Z-rV04ZRaT8_ZhlqwDsx-59" value="" style="shape=partialRectangle;collapsible=0;dropTarget=0;pointerEvents=0;fillColor=none;top=0;left=0;bottom=0;right=0;points=[[0,0.5],[1,0.5]];portConstraint=eastwest;" vertex="1" parent="Z-rV04ZRaT8_ZhlqwDsx-56">
          <mxGeometry y="40" width="60" height="40" as="geometry" />
        </mxCell>
        <mxCell id="Z-rV04ZRaT8_ZhlqwDsx-60" value="" style="shape=partialRectangle;html=1;whiteSpace=wrap;connectable=0;overflow=hidden;fillColor=none;top=0;left=0;bottom=0;right=0;" vertex="1" parent="Z-rV04ZRaT8_ZhlqwDsx-59">
          <mxGeometry width="60" height="40" as="geometry" />
        </mxCell>
        <mxCell id="Z-rV04ZRaT8_ZhlqwDsx-61" value="" style="shape=partialRectangle;collapsible=0;dropTarget=0;pointerEvents=0;fillColor=none;top=0;left=0;bottom=0;right=0;points=[[0,0.5],[1,0.5]];portConstraint=eastwest;" vertex="1" parent="Z-rV04ZRaT8_ZhlqwDsx-56">
          <mxGeometry y="80" width="60" height="40" as="geometry" />
        </mxCell>
        <mxCell id="Z-rV04ZRaT8_ZhlqwDsx-62" value="1" style="shape=partialRectangle;html=1;whiteSpace=wrap;connectable=0;overflow=hidden;fillColor=none;top=0;left=0;bottom=0;right=0;" vertex="1" parent="Z-rV04ZRaT8_ZhlqwDsx-61">
          <mxGeometry width="60" height="40" as="geometry" />
        </mxCell>
        <mxCell id="Z-rV04ZRaT8_ZhlqwDsx-63" value="" style="shape=partialRectangle;collapsible=0;dropTarget=0;pointerEvents=0;fillColor=none;top=0;left=0;bottom=0;right=0;points=[[0,0.5],[1,0.5]];portConstraint=eastwest;" vertex="1" parent="Z-rV04ZRaT8_ZhlqwDsx-56">
          <mxGeometry y="120" width="60" height="40" as="geometry" />
        </mxCell>
        <mxCell id="Z-rV04ZRaT8_ZhlqwDsx-64" value="3" style="shape=partialRectangle;html=1;whiteSpace=wrap;connectable=0;overflow=hidden;fillColor=none;top=0;left=0;bottom=0;right=0;" vertex="1" parent="Z-rV04ZRaT8_ZhlqwDsx-63">
          <mxGeometry width="60" height="40" as="geometry" />
        </mxCell>
        <mxCell id="Z-rV04ZRaT8_ZhlqwDsx-65" style="shape=partialRectangle;collapsible=0;dropTarget=0;pointerEvents=0;fillColor=none;top=0;left=0;bottom=0;right=0;points=[[0,0.5],[1,0.5]];portConstraint=eastwest;" vertex="1" parent="Z-rV04ZRaT8_ZhlqwDsx-56">
          <mxGeometry y="160" width="60" height="40" as="geometry" />
        </mxCell>
        <mxCell id="Z-rV04ZRaT8_ZhlqwDsx-66" value="6" style="shape=partialRectangle;html=1;whiteSpace=wrap;connectable=0;overflow=hidden;fillColor=none;top=0;left=0;bottom=0;right=0;" vertex="1" parent="Z-rV04ZRaT8_ZhlqwDsx-65">
          <mxGeometry width="60" height="40" as="geometry" />
        </mxCell>
        <mxCell id="Z-rV04ZRaT8_ZhlqwDsx-67" style="shape=partialRectangle;collapsible=0;dropTarget=0;pointerEvents=0;fillColor=none;top=0;left=0;bottom=0;right=0;points=[[0,0.5],[1,0.5]];portConstraint=eastwest;" vertex="1" parent="Z-rV04ZRaT8_ZhlqwDsx-56">
          <mxGeometry y="200" width="60" height="40" as="geometry" />
        </mxCell>
        <mxCell id="Z-rV04ZRaT8_ZhlqwDsx-68" value="2" style="shape=partialRectangle;html=1;whiteSpace=wrap;connectable=0;overflow=hidden;fillColor=none;top=0;left=0;bottom=0;right=0;" vertex="1" parent="Z-rV04ZRaT8_ZhlqwDsx-67">
          <mxGeometry width="60" height="40" as="geometry" />
        </mxCell>
        <mxCell id="Z-rV04ZRaT8_ZhlqwDsx-70" value="" style="shape=flexArrow;endArrow=classic;html=1;" edge="1" parent="1">
          <mxGeometry width="50" height="50" relative="1" as="geometry">
            <mxPoint x="325" y="320" as="sourcePoint" />
            <mxPoint x="395" y="320" as="targetPoint" />
          </mxGeometry>
        </mxCell>
        <mxCell id="Z-rV04ZRaT8_ZhlqwDsx-71" value="想要将1出栈，需要上面的元素全部出栈，出栈的元素需要保存到outStack里面，" style="rounded=0;whiteSpace=wrap;html=1;" vertex="1" parent="1">
          <mxGeometry x="240" y="190" width="240" height="110" as="geometry" />
        </mxCell>
        <mxCell id="Z-rV04ZRaT8_ZhlqwDsx-72" value="inStack" style="rounded=0;whiteSpace=wrap;html=1;" vertex="1" parent="1">
          <mxGeometry x="10" y="440" width="90" height="50" as="geometry" />
        </mxCell>
        <mxCell id="Z-rV04ZRaT8_ZhlqwDsx-73" value="outStack" style="rounded=0;whiteSpace=wrap;html=1;" vertex="1" parent="1">
          <mxGeometry x="135" y="440" width="90" height="50" as="geometry" />
        </mxCell>
        <mxCell id="Z-rV04ZRaT8_ZhlqwDsx-74" value="inStack" style="rounded=0;whiteSpace=wrap;html=1;" vertex="1" parent="1">
          <mxGeometry x="492.5" y="430" width="90" height="50" as="geometry" />
        </mxCell>
        <mxCell id="Z-rV04ZRaT8_ZhlqwDsx-75" value="outStack" style="rounded=0;whiteSpace=wrap;html=1;" vertex="1" parent="1">
          <mxGeometry x="617.5" y="430" width="90" height="50" as="geometry" />
        </mxCell>
      </root>
    </mxGraphModel>
  </diagram>
</mxfile>
